<?xml version="1.0" encoding="UTF-8" standalone="no"?>
<svg
   xmlns:dc="http://purl.org/dc/elements/1.1/"
   xmlns:cc="http://creativecommons.org/ns#"
   xmlns:rdf="http://www.w3.org/1999/02/22-rdf-syntax-ns#"
   xmlns:svg="http://www.w3.org/2000/svg"
   xmlns="http://www.w3.org/2000/svg"
   xmlns:xlink="http://www.w3.org/1999/xlink"
   xmlns:sodipodi="http://sodipodi.sourceforge.net/DTD/sodipodi-0.dtd"
   xmlns:inkscape="http://www.inkscape.org/namespaces/inkscape"
   inkscape:export-ydpi="53.330002"
   inkscape:export-xdpi="53.330002"
   inkscape:export-filename="C:\Users\gener\Documents\Programming\SpartronicsLogo\png logos\Original\new version 7 1000x1000 without background.png"
   inkscape:version="1.0 (4035a4fb49, 2020-05-01)"
   sodipodi:docname="Original logo -- non-web new gear simple.svg"
   id="svg8"
   version="1.1"
   viewBox="0 0 476.24999 476.25002"
   height="1800"
   width="1800">
  <defs
     id="defs2">
    <rect
       id="rect2432"
       height="23.812501"
       width="76.464586"
       y="353.74792"
       x="200.025" />
    <rect
       id="rect2426"
       height="24.606251"
       width="77.787503"
       y="353.74792"
       x="200.025" />
    <clipPath
       id="clipPath18"
       clipPathUnits="userSpaceOnUse">
      <path
         id="path16"
         d="M 0,599.925 H 599.925 V 0 H 0 Z" />
    </clipPath>
    <clipPath
       clipPathUnits="userSpaceOnUse"
       id="clipPath74">
      <path
         d="M 0,487.766 H 494.033 V 0 H 0 Z"
         id="path72" />
    </clipPath>
    <clipPath
       clipPathUnits="userSpaceOnUse"
       id="clipPath38">
      <path
         d="M 0,487.766 H 494.033 V 0 H 0 Z"
         id="path36" />
    </clipPath>
    <clipPath
       clipPathUnits="userSpaceOnUse"
       id="clipPath18-5">
      <path
         d="M 0,487.766 H 494.033 V 0 H 0 Z"
         id="path16-8" />
    </clipPath>
    <clipPath
       clipPathUnits="userSpaceOnUse"
       id="clipPath18-1">
      <path
         d="M 0,1174.923 H 1079.865 V 0 H 0 Z"
         id="path16-4" />
    </clipPath>
    <clipPath
       id="clipPath74-6"
       clipPathUnits="userSpaceOnUse">
      <path
         id="path72-6"
         d="M 0,487.766 H 494.033 V 0 H 0 Z" />
    </clipPath>
    <clipPath
       id="clipPath38-8"
       clipPathUnits="userSpaceOnUse">
      <path
         id="path36-1"
         d="M 0,487.766 H 494.033 V 0 H 0 Z" />
    </clipPath>
    <clipPath
       id="clipPath18-59"
       clipPathUnits="userSpaceOnUse">
      <path
         id="path16-1"
         d="M 0,487.766 H 494.033 V 0 H 0 Z" />
    </clipPath>
  </defs>
  <sodipodi:namedview
     inkscape:window-maximized="1"
     inkscape:window-y="-9"
     inkscape:window-x="-9"
     inkscape:window-height="1001"
     inkscape:window-width="1920"
     units="px"
     showgrid="true"
     inkscape:document-rotation="0"
     inkscape:current-layer="layer1"
     inkscape:document-units="px"
     inkscape:cy="871.10306"
     inkscape:cx="634.02"
     inkscape:zoom="0.29714123"
     inkscape:pageshadow="2"
     inkscape:pageopacity="0.0"
     borderopacity="1.0"
     bordercolor="#666666"
     pagecolor="#ffffff"
     id="base"
     showguides="false">
    <inkscape:grid
       enabled="false"
       id="grid2422"
       type="xygrid" />
  </sodipodi:namedview>
  <metadata
     id="metadata5">
    <rdf:RDF>
      <cc:Work
         rdf:about="">
        <dc:format>image/svg+xml</dc:format>
        <dc:type
           rdf:resource="http://purl.org/dc/dcmitype/StillImage" />
        <dc:title />
      </cc:Work>
    </rdf:RDF>
  </metadata>
  <g
     id="layer1"
     inkscape:groupmode="layer"
     inkscape:label="Layer 1"
     style="display:inline">
    <rect
       inkscape:label="background"
       y="0"
       x="-7.1054274e-15"
       height="476.25"
       width="476.25"
       id="rect1525"
       style="display:inline;opacity:0.997;fill:#1455fb;stroke-width:27.9544;stop-color:#000000" />
    <g
       id="g1703"
       style="display:inline;opacity:1;mix-blend-mode:normal"
       inkscape:label="whole logo">
      <ellipse
         inkscape:label="background circle"
         cx="238.125"
         cy="238.125"
         rx="173.93047"
         ry="173.63281"
         id="path1002"
         style="display:inline;fill:#1455fb;fill-opacity:1;stroke-width:0.289293;stop-color:#000000" />
      <path
         inkscape:label="gear"
         id="path22"
         style="display:none;fill:#fcff00;fill-opacity:1;fill-rule:evenodd;stroke:#1455fb;stroke-width:0.770734;stroke-miterlimit:4;stroke-dasharray:none;stroke-opacity:1"
         d="m 167.52082,91.090507 c -18.88204,8.973993 -34.37243,20.742433 -47.0466,33.877693 -25.745574,26.68171 -47.047364,63.31382 -47.047364,114.72059 0,75.54583 46.569894,127.14818 97.950744,150.13835 32.23115,14.42122 70.33001,18.14665 104.89142,10.00892 62.03483,-14.60603 109.89521,-61.22549 123.4009,-124.73028 7.54927,-35.49245 3.01523,-73.75473 -11.56881,-104.71167 C 364.03863,119.3146 310.53886,73.213374 233.84902,75.692116 207.49407,76.543775 186.1946,82.215853 167.52082,91.090507 M 229.99301,7.9375032 h 13.88288 c 14.39506,2.0552235 31.70277,1.2020247 42.41923,6.9295448 3.20499,8.34872 0.7945,22.304835 1.54271,33.106887 15.84213,6.770148 34.06158,11.166278 47.0466,20.788636 6.20171,-4.38766 8.76261,-7.208298 13.11152,-11.548986 3.45877,-3.452837 7.95809,-11.165508 13.11152,-11.548985 6.1994,-0.462021 15.01601,9.161877 20.82355,13.858321 14.55474,11.769985 23.14919,20.403618 34.70643,34.647726 4.14913,5.113033 13.93996,14.924053 13.88366,20.018603 -0.0555,4.96133 -7.42509,10.49173 -10.79823,13.85832 -4.85492,4.84737 -8.7063,7.5525 -12.34017,12.31902 8.61143,13.98923 14.83474,30.36094 20.05297,47.73601 11.35129,0.73076 25.80883,-1.6394 34.7072,1.54007 4.2386,11.93708 4.50087,27.84447 6.17008,42.34731 v 13.85832 c -2.05875,14.37039 -1.20486,31.64844 -6.94144,42.34654 -8.36459,3.19949 -22.34312,0.7939 -33.16449,1.54007 -6.78099,15.81498 -11.18544,34.0032 -20.82432,46.96597 4.3952,6.19109 7.22068,8.74837 11.56881,13.08906 3.45877,3.45284 11.18468,7.94368 11.56959,13.08905 0.46204,6.18955 -9.17838,14.99028 -13.88366,20.78864 -11.78941,14.52979 -20.43787,23.10875 -34.70643,34.64696 -5.12181,4.14202 -14.95043,13.9153 -20.05296,13.85909 -4.96985,-0.0547 -10.50974,-7.41236 -13.88211,-10.77895 -4.85569,-4.84814 -7.56547,-8.69139 -12.34017,-12.31902 -14.01324,8.59513 -30.41305,14.80854 -47.81795,20.01783 -0.73202,11.33183 1.64222,25.7646 -1.54271,34.64695 -11.95758,4.23212 -27.89227,4.49316 -42.41923,6.15951 h -13.88288 c -14.39506,-2.05445 -31.70277,-1.20202 -42.41923,-6.92877 -3.20498,-8.34949 -0.79527,-22.30484 -1.54271,-33.10766 -15.84213,-6.76938 -34.06158,-11.16628 -47.0466,-20.78786 -6.20248,4.38689 -8.76338,7.20829 -13.11152,11.54898 -3.45876,3.45207 -7.95732,11.16474 -13.11152,11.54899 -6.20017,0.46125 -15.016007,-9.16265 -20.824324,-13.85909 -14.554732,-11.76999 -23.148419,-20.40362 -34.70643,-34.64696 -4.149128,-5.1138 -13.939189,-14.92482 -13.88288,-20.0186 0.05554,-4.96211 7.425081,-10.49173 10.798224,-13.85909 4.85492,-4.84737 8.705534,-7.5525 12.340167,-12.31902 -8.610656,-13.98923 -14.834735,-30.36017 -20.052964,-47.73601 -11.351287,-0.73 -25.808057,1.6394 -34.707201,-1.54007 C 7.4874164,276.25775 7.2259264,260.35037 5.5559389,245.8483 v -13.85832 c 2.2893871,-14.65377 0.8307513,-33.04837 7.7127971,-43.11734 9.678986,-1.6294 22.245931,-0.37732 33.164487,-0.77004 5.352445,-16.98466 10.912385,-33.76218 20.052964,-46.96598 -4.454586,-6.25499 -7.16282,-8.68984 -11.56881,-13.08905 -3.606093,-3.59992 -11.514043,-8.11925 -11.569581,-13.85832 -0.054,-5.64667 9.276337,-14.341905 13.88288,-20.018603 C 69.329408,79.260459 77.979404,70.810094 91.937106,59.522921 97.208559,55.260777 107.06958,45.22953 112.76143,45.6646 c 5.00996,0.381937 9.61496,8.058417 13.11152,11.548985 4.75464,4.745726 7.9766,8.143121 13.11152,11.548986 13.22569,-9.124915 30.03278,-14.675328 47.0466,-20.018601 0.73202,-11.331836 -1.64222,-25.763832 1.54271,-34.646957 11.95758,-4.2313421 27.89227,-4.493154 42.41923,-6.1595098" />
      <path
         inkscape:label="plume"
         d="m 119.95772,339.7122 c -0.31133,0.0679 -0.34537,-0.14421 -0.36605,-0.36977 6.45607,-2.10562 11.08481,-8.69022 13.5423,-15.34341 2.64528,-7.16217 3.83825,-15.95575 2.74503,-24.95602 -2.12384,-17.48417 -8.77282,-29.90237 -11.16314,-46.39964 -5.49848,-37.9492 8.04108,-69.55287 24.88829,-87.99325 18.10496,-19.81684 44.86744,-32.95663 75.21449,-39.37502 8.11447,-1.71627 16.59042,-2.77306 25.8036,-2.77306 9.04443,0 17.94464,0.85139 25.98645,2.58817 13.64919,2.94759 26.20388,7.49792 36.41767,13.67948 1.46311,0.88558 3.03696,1.85123 4.20906,3.14263 -7.0467,13.40141 -14.07455,26.82149 -21.04547,40.29944 -17.89632,-11.27581 -46.16675,-19.29861 -74.48239,-13.30989 -11.6769,2.46966 -22.55251,7.45114 -32.20861,13.67965 -9.55837,6.16547 -18.00705,13.32579 -24.52242,21.6285 -10.34685,13.18528 -17.15506,29.29651 -15.73825,53.05486 0.43047,7.21856 1.4955,14.29532 1.83008,21.44362 0.35946,7.6865 0.43322,15.23286 -0.18303,22.18297 -1.8881,21.28942 -11.68989,35.50727 -30.92761,38.82074"
         style="fill:#fcff00;fill-opacity:1;fill-rule:evenodd;stroke:none;stroke-width:0.183952"
         id="path22-4" />
      <path
         inkscape:label="helmet"
         id="path22-5"
         style="fill:#fcff00;fill-opacity:1;fill-rule:evenodd;stroke:none;stroke-width:0.239538"
         d="m 214.9668,220.68486 c -7.41572,4.94462 -12.32004,12.81083 -12.87143,22.86327 -0.74067,13.50524 6.53441,23.34082 15.01667,27.91742 20.49121,11.05543 46.54349,-4.27525 44.09599,-29.60206 -0.74329,-7.69 -5.45238,-14.96818 -9.5345,-18.77191 -4.52457,-4.21652 -12.52315,-7.92493 -21.45191,-7.22017 -6.14751,0.48548 -11.36245,2.21802 -15.25482,4.81345 M 227.36122,180.975 h 8.58095 c 2.76099,0.98276 6.65384,0.82222 9.53427,1.68463 0.69513,2.79858 0.38976,5.98636 0.23814,9.14526 2.72833,1.74192 6.47123,2.66138 10.01127,4.33206 1.18169,0.55769 2.3853,1.49256 3.09855,1.44394 2.72714,-0.18582 3.52978,-5.27462 5.95894,-5.776 2.59102,-0.53482 5.10766,1.59799 6.91225,3.12858 3.85399,3.26913 6.61522,5.87853 10.01103,9.86735 1.44534,1.69787 3.51524,4.10773 3.09855,6.73878 -0.5533,3.49491 -4.49931,2.97645 -5.72056,6.25714 6.94443,4.73113 12.68549,9.16187 17.63844,15.40264 2.44394,3.07948 4.76487,6.56885 6.19733,10.34875 7.36018,19.423 15.6422,39.49227 28.60254,53.42788 v 0.72209 c -7.85244,-1.45742 -15.53897,-3.08236 -23.35875,-4.57275 1.38526,-8.44869 -0.1602,-17.05214 -3.57532,-22.62258 -1.63033,-2.65873 -3.79249,-5.42771 -5.72056,-6.97923 -3.93004,-3.16252 -11.90716,-5.39618 -18.59175,-3.36952 -4.31455,1.30819 -7.33705,4.47118 -10.72595,7.22017 5.81901,7.38048 16.47178,11.09876 30.03262,9.86736 0.21335,2.03845 -0.38237,4.64664 -0.47653,6.73854 -1.14235,25.39058 5.58968,46.07676 9.05749,67.38658 h -0.47678 c -23.78714,-7.02834 -40.4923,-21.20729 -59.3508,-33.21202 -16.929,4.24588 -33.68661,8.66555 -50.76985,12.75522 -0.23886,-2.40456 1.44677,-3.86269 2.14524,-6.01668 0.70682,-2.17975 1.39575,-5.6181 1.66847,-7.94179 0.74115,-6.31515 -0.20549,-12.94441 -1.43008,-18.77191 -5.33723,2.09045 -10.38244,-4.7073 -13.58635,-7.94202 -1.59337,-1.60906 -2.99628,-2.95407 -4.52886,-4.81345 -1.60053,-1.94194 -3.47019,-3.80781 -3.33693,-6.01645 0.21406,-3.54569 4.27975,-3.47974 5.72055,-6.49808 -0.86963,-4.26297 -4.10191,-8.2075 -4.76701,-13.47755 -3.26756,-0.07 -6.86529,0.19327 -9.77289,-0.2407 -1.05366,-2.4657 -0.77141,-6.28026 -1.66846,-8.90456 v -9.86736 c 1.10301,-2.73696 0.0946,-7.60553 2.38363,-9.14526 2.60675,-0.49632 6.07145,-0.12709 9.05772,-0.2407 0.8837,-5.20434 3.28211,-8.87953 5.0054,-13.23662 -1.3383,-3.01352 -5.79637,-3.12857 -5.95894,-6.97923 -0.0823,-1.94772 1.89231,-4.5896 3.33693,-6.25739 1.5619,-1.80281 3.11046,-3.1406 4.76725,-4.81321 1.24366,-1.25595 2.98364,-3.01496 5.0054,-4.57275 1.7283,-1.33153 4.42469,-3.49275 6.19732,-3.36927 3.38747,0.23589 3.93481,5.2987 7.15064,5.776 3.91025,-1.9884 7.79904,-3.99846 12.63304,-5.05391 0.19714,-3.2506 -0.46342,-7.367 0.47654,-9.86735 2.74406,-0.9197 6.65431,-0.66167 9.29587,-1.68463" />
      <text
         inkscape:label="4915 text"
         xml:space="preserve"
         style="font-style:normal;font-variant:normal;font-weight:normal;font-stretch:normal;font-size:44.45px;line-height:1.25;font-family:'SF TransRobotics';-inkscape-font-specification:'SF TransRobotics';text-align:center;letter-spacing:7.9375px;text-anchor:middle;display:inline;opacity:1;fill:#fcff00;fill-opacity:1;stroke-width:0.693885"
         x="238.43217"
         y="377.10458"
         id="text2438"
         transform="scale(0.99879275,1.0012087)"><tspan
           sodipodi:role="line"
           id="tspan2436"
           x="242.40092"
           y="377.10458"
           style="font-style:normal;font-variant:normal;font-weight:normal;font-stretch:normal;font-size:44.45px;font-family:'SF TransRobotics';-inkscape-font-specification:'SF TransRobotics';text-align:center;text-anchor:middle;fill:#fcff00;fill-opacity:1;stroke-width:0.693885">4915</tspan></text>
      <text
         inkscape:label="close circle text"
         xml:space="preserve"
         style="font-style:normal;font-variant:normal;font-weight:normal;font-stretch:normal;font-size:49.3889px;line-height:1.25;font-family:'SF TransRobotics';-inkscape-font-specification:'SF TransRobotics';letter-spacing:0px;display:inline;fill:#fcff00;fill-opacity:1;stroke-width:0.264583"
         id="text1588"><textPath
           xlink:href="#ellipse1535"
           id="textPath1593">SPARTRONICS<tspan
   style="font-style:normal;font-variant:normal;font-weight:normal;font-stretch:normal;font-size:49.3889px;font-family:'SF TransRobotics';-inkscape-font-specification:'SF TransRobotics';fill:#fcff00;fill-opacity:1;stroke-width:0.264583"
   id="tspan1586" /></textPath></text>
      <path
         inkscape:export-ydpi="200"
         inkscape:export-xdpi="200"
         d="M 122.17372,185.20834 A 128.08755,127.86835 24.401555 0 1 291.64565,121.67882 128.08755,127.86835 24.401555 0 1 355.46533,291.04169 128.08755,127.86835 24.401555 0 1 185.9934,354.57119 128.08755,127.86835 24.401555 0 1 122.17372,185.20834"
         inkscape:label="circle for text"
         style="display:none;fill:#1455fb;fill-opacity:1;stroke-width:0.213046;stop-color:#000000"
         id="ellipse1535" />
      <path
         id="path936-1"
         style="display:inline;fill:#fcff00;fill-opacity:1;stroke:#1455fb;stroke-width:0.770731;stroke-linecap:butt;stroke-linejoin:miter;stroke-miterlimit:4;stroke-dasharray:none;stroke-opacity:1"
         inkscape:label="new gear merged"
         d="m 236.93437,7.9375007 c -4.72111,0.372709 -21.86017,0.2770971 -46.85605,5.7402183 -5.99789,2.056194 -3.53876,23.468104 -4.04575,35.026285 A 196.45312,196.45312 0 0 0 141.0193,67.349379 C 132.48794,59.535109 119.08666,42.654964 113.39153,45.442189 91.853753,59.253941 79.801874,71.441081 76.2,74.515868 l -1.684133,1.684133 c -3.074787,3.601874 -15.261416,15.653248 -29.073164,37.191019 -2.787253,5.69521 14.092508,19.09746 21.906675,27.6288 a 196.45312,196.45312 0 0 0 -18.645375,45.01276 c -11.558181,0.507 -32.970092,-1.95266 -35.026285,4.04523 -5.4631202,24.99589 -5.3675093,42.13546 -5.7402181,46.85657 v 2.38125 c 0.3727091,4.72111 0.2770971,21.86018 5.7402181,46.85607 2.056194,5.99787 23.468104,3.53875 35.026285,4.04575 a 196.45312,196.45312 0 0 0 18.645375,45.01274 c -7.814164,8.53136 -24.694449,21.93308 -21.90719,27.62829 13.811752,21.53777 25.998895,33.58965 29.073679,37.19153 L 76.2,401.73414 c 3.601876,3.0748 15.653251,15.26143 37.19101,29.07315 5.69515,2.78723 19.09692,-14.09239 27.62829,-21.90665 a 196.45312,196.45312 0 0 0 45.01327,18.64484 c 0.50709,11.55809 -1.95275,32.97061 4.04523,35.02682 24.99589,5.46311 42.13546,5.36749 46.85657,5.74021 h 2.38125 c 4.72111,-0.37272 21.86018,-0.2771 46.85607,-5.74021 5.99787,-2.05621 3.53875,-23.4681 4.04575,-35.02629 a 196.45312,196.45312 0 0 0 45.01274,-18.64537 c 8.53136,7.81415 21.93308,24.69444 27.62829,21.90718 21.53777,-13.81175 33.58965,-25.99888 37.19153,-29.07368 l 1.68413,-1.68413 c 3.0748,-3.60188 15.26143,-15.65325 29.07315,-37.19102 2.78723,-5.69513 -14.09239,-19.09692 -21.90665,-27.62827 a 196.45312,196.45312 0 0 0 18.64484,-45.01327 c 11.55809,-0.50711 32.97061,1.95273 35.02682,-4.04525 5.46311,-24.99588 5.36749,-42.13546 5.74021,-46.85657 v -2.38125 c -0.37272,-4.72111 -0.2771,-21.86017 -5.74021,-46.85605 -2.05621,-5.99789 -23.4681,-3.53876 -35.02629,-4.04575 a 196.45312,196.45312 0 0 0 -18.64537,-45.01276 c 7.81415,-8.53134 24.69444,-21.93309 21.90718,-27.62828 C 416.99606,91.853754 404.80893,79.801875 401.73413,76.200001 L 400.05,74.515868 C 396.44812,71.441081 384.39675,59.254452 362.85898,45.442704 357.16385,42.65548 343.76206,59.535101 335.23071,67.349379 A 196.45312,196.45312 0 0 0 290.21744,48.704522 C 289.71033,37.146458 292.17017,15.733942 286.17219,13.677719 261.17631,8.2145986 244.03673,8.3102095 239.31562,7.9375007 Z m 1.11983,66.1468683 a 164.04056,164.04055 0 0 1 5.3e-4,0 164.04056,164.04055 0 0 1 0.0703,0 A 164.04056,164.04055 0 0 1 402.16563,238.12501 164.04056,164.04055 0 0 1 238.125,402.16564 164.04056,164.04055 0 0 1 74.084368,238.12501 164.04056,164.04055 0 0 1 238.0542,74.084369 Z" />
    </g>
  </g>
</svg>
