<?xml version="1.0" encoding="UTF-8" standalone="no"?>
<svg
   xmlns:dc="http://purl.org/dc/elements/1.1/"
   xmlns:cc="http://creativecommons.org/ns#"
   xmlns:rdf="http://www.w3.org/1999/02/22-rdf-syntax-ns#"
   xmlns:svg="http://www.w3.org/2000/svg"
   xmlns="http://www.w3.org/2000/svg"
   xmlns:xlink="http://www.w3.org/1999/xlink"
   xmlns:sodipodi="http://sodipodi.sourceforge.net/DTD/sodipodi-0.dtd"
   xmlns:inkscape="http://www.inkscape.org/namespaces/inkscape"
   width="1800"
   height="1800"
   viewBox="0 0 476.24999 476.25002"
   version="1.1"
   id="svg8"
   sodipodi:docname="Main logo -- non-web safe.svg"
   inkscape:version="1.0 (4035a4fb49, 2020-05-01)"
   inkscape:export-filename="C:\Users\gener\Documents\Spartronics logo\mask logo fixed.png"
   inkscape:export-xdpi="300"
   inkscape:export-ydpi="300">
  <defs
     id="defs2">
    <rect
       x="200.025"
       y="353.74792"
       width="76.464586"
       height="23.812501"
       id="rect2432" />
    <rect
       x="200.025"
       y="353.74792"
       width="77.787503"
       height="24.606251"
       id="rect2426" />
    <clipPath
       clipPathUnits="userSpaceOnUse"
       id="clipPath18">
      <path
         d="M 0,599.925 H 599.925 V 0 H 0 Z"
         id="path16" />
    </clipPath>
    <clipPath
       id="clipPath74"
       clipPathUnits="userSpaceOnUse">
      <path
         id="path72"
         d="M 0,487.766 H 494.033 V 0 H 0 Z" />
    </clipPath>
    <clipPath
       id="clipPath38"
       clipPathUnits="userSpaceOnUse">
      <path
         id="path36"
         d="M 0,487.766 H 494.033 V 0 H 0 Z" />
    </clipPath>
    <clipPath
       id="clipPath18-5"
       clipPathUnits="userSpaceOnUse">
      <path
         id="path16-8"
         d="M 0,487.766 H 494.033 V 0 H 0 Z" />
    </clipPath>
    <clipPath
       id="clipPath18-1"
       clipPathUnits="userSpaceOnUse">
      <path
         id="path16-4"
         d="M 0,1174.923 H 1079.865 V 0 H 0 Z" />
    </clipPath>
    <clipPath
       clipPathUnits="userSpaceOnUse"
       id="clipPath74-6">
      <path
         d="M 0,487.766 H 494.033 V 0 H 0 Z"
         id="path72-6" />
    </clipPath>
    <clipPath
       clipPathUnits="userSpaceOnUse"
       id="clipPath38-8">
      <path
         d="M 0,487.766 H 494.033 V 0 H 0 Z"
         id="path36-1" />
    </clipPath>
    <clipPath
       clipPathUnits="userSpaceOnUse"
       id="clipPath18-59">
      <path
         d="M 0,487.766 H 494.033 V 0 H 0 Z"
         id="path16-1" />
    </clipPath>
  </defs>
  <sodipodi:namedview
     showguides="false"
     id="base"
     pagecolor="#ffffff"
     bordercolor="#666666"
     borderopacity="1.0"
     inkscape:pageopacity="0.0"
     inkscape:pageshadow="2"
     inkscape:zoom="0.29816337"
     inkscape:cx="1935.1127"
     inkscape:cy="1034.0906"
     inkscape:document-units="px"
     inkscape:current-layer="layer1"
     inkscape:document-rotation="0"
     showgrid="true"
     units="px"
     inkscape:window-width="1920"
     inkscape:window-height="1001"
     inkscape:window-x="-9"
     inkscape:window-y="-9"
     inkscape:window-maximized="1">
    <inkscape:grid
       type="xygrid"
       id="grid2422"
       enabled="false" />
  </sodipodi:namedview>
  <metadata
     id="metadata5">
    <rdf:RDF>
      <cc:Work
         rdf:about="">
        <dc:format>image/svg+xml</dc:format>
        <dc:type
           rdf:resource="http://purl.org/dc/dcmitype/StillImage" />
        <dc:title />
      </cc:Work>
    </rdf:RDF>
  </metadata>
  <rect
     style="opacity:0.997;fill:#1455fb;stroke-width:27.9544;stop-color:#000000"
     id="rect1525"
     width="476.25"
     height="476.25"
     x="-7.1054274e-15"
     y="0"
     inkscape:label="background" />
  <g
     inkscape:label="Layer 1"
     inkscape:groupmode="layer"
     id="layer1">
    <g
       style="display:inline;opacity:1;mix-blend-mode:normal"
       id="g1703">
      <ellipse
         style="display:inline;fill:#1455fb;fill-opacity:1;stroke-width:0.289293;stop-color:#000000"
         id="path1002"
         ry="173.63281"
         rx="173.93047"
         cy="238.125"
         cx="238.125"
         inkscape:label="big blue circle" />
      <path
         d="m 167.52082,91.090507 c -18.88204,8.973993 -34.37243,20.742433 -47.0466,33.877693 -25.745574,26.68171 -47.047364,63.31382 -47.047364,114.72059 0,75.54583 46.569894,127.14818 97.950744,150.13835 32.23115,14.42122 70.33001,18.14665 104.89142,10.00892 62.03483,-14.60603 109.89521,-61.22549 123.4009,-124.73028 7.54927,-35.49245 3.01523,-73.75473 -11.56881,-104.71167 C 364.03863,119.3146 310.53886,73.213374 233.84902,75.692116 207.49407,76.543775 186.1946,82.215853 167.52082,91.090507 M 229.99301,7.9375032 h 13.88288 c 14.39506,2.0552235 31.70277,1.2020247 42.41923,6.9295448 3.20499,8.34872 0.7945,22.304835 1.54271,33.106887 15.84213,6.770148 34.06158,11.166278 47.0466,20.788636 6.20171,-4.38766 8.76261,-7.208298 13.11152,-11.548986 3.45877,-3.452837 7.95809,-11.165508 13.11152,-11.548985 6.1994,-0.462021 15.01601,9.161877 20.82355,13.858321 14.55474,11.769985 23.14919,20.403618 34.70643,34.647726 4.14913,5.113033 13.93996,14.924053 13.88366,20.018603 -0.0555,4.96133 -7.42509,10.49173 -10.79823,13.85832 -4.85492,4.84737 -8.7063,7.5525 -12.34017,12.31902 8.61143,13.98923 14.83474,30.36094 20.05297,47.73601 11.35129,0.73076 25.80883,-1.6394 34.7072,1.54007 4.2386,11.93708 4.50087,27.84447 6.17008,42.34731 v 13.85832 c -2.05875,14.37039 -1.20486,31.64844 -6.94144,42.34654 -8.36459,3.19949 -22.34312,0.7939 -33.16449,1.54007 -6.78099,15.81498 -11.18544,34.0032 -20.82432,46.96597 4.3952,6.19109 7.22068,8.74837 11.56881,13.08906 3.45877,3.45284 11.18468,7.94368 11.56959,13.08905 0.46204,6.18955 -9.17838,14.99028 -13.88366,20.78864 -11.78941,14.52979 -20.43787,23.10875 -34.70643,34.64696 -5.12181,4.14202 -14.95043,13.9153 -20.05296,13.85909 -4.96985,-0.0547 -10.50974,-7.41236 -13.88211,-10.77895 -4.85569,-4.84814 -7.56547,-8.69139 -12.34017,-12.31902 -14.01324,8.59513 -30.41305,14.80854 -47.81795,20.01783 -0.73202,11.33183 1.64222,25.7646 -1.54271,34.64695 -11.95758,4.23212 -27.89227,4.49316 -42.41923,6.15951 h -13.88288 c -14.39506,-2.05445 -31.70277,-1.20202 -42.41923,-6.92877 -3.20498,-8.34949 -0.79527,-22.30484 -1.54271,-33.10766 -15.84213,-6.76938 -34.06158,-11.16628 -47.0466,-20.78786 -6.20248,4.38689 -8.76338,7.20829 -13.11152,11.54898 -3.45876,3.45207 -7.95732,11.16474 -13.11152,11.54899 -6.20017,0.46125 -15.016007,-9.16265 -20.824324,-13.85909 -14.554732,-11.76999 -23.148419,-20.40362 -34.70643,-34.64696 -4.149128,-5.1138 -13.939189,-14.92482 -13.88288,-20.0186 0.05554,-4.96211 7.425081,-10.49173 10.798224,-13.85909 4.85492,-4.84737 8.705534,-7.5525 12.340167,-12.31902 -8.610656,-13.98923 -14.834735,-30.36017 -20.052964,-47.73601 -11.351287,-0.73 -25.808057,1.6394 -34.707201,-1.54007 C 7.4874164,276.25775 7.2259264,260.35037 5.5559389,245.8483 v -13.85832 c 2.2893871,-14.65377 0.8307513,-33.04837 7.7127971,-43.11734 9.678986,-1.6294 22.245931,-0.37732 33.164487,-0.77004 5.352445,-16.98466 10.912385,-33.76218 20.052964,-46.96598 -4.454586,-6.25499 -7.16282,-8.68984 -11.56881,-13.08905 -3.606093,-3.59992 -11.514043,-8.11925 -11.569581,-13.85832 -0.054,-5.64667 9.276337,-14.341905 13.88288,-20.018603 C 69.329408,79.260459 77.979404,70.810094 91.937106,59.522921 97.208559,55.260777 107.06958,45.22953 112.76143,45.6646 c 5.00996,0.381937 9.61496,8.058417 13.11152,11.548985 4.75464,4.745726 7.9766,8.143121 13.11152,11.548986 13.22569,-9.124915 30.03278,-14.675328 47.0466,-20.018601 0.73202,-11.331836 -1.64222,-25.763832 1.54271,-34.646957 11.95758,-4.2313421 27.89227,-4.493154 42.41923,-6.1595098"
         style="display:inline;fill:#fcff00;fill-opacity:1;fill-rule:evenodd;stroke:#1455fb;stroke-width:0.770734;stroke-miterlimit:4;stroke-dasharray:none;stroke-opacity:1"
         id="path22"
         inkscape:label="gear" />
      <path
         id="path22-4"
         style="fill:#fcff00;fill-opacity:1;fill-rule:evenodd;stroke:none;stroke-width:0.183952"
         d="m 119.95772,339.7122 c -0.31133,0.0679 -0.34537,-0.14421 -0.36605,-0.36977 6.45607,-2.10562 11.08481,-8.69022 13.5423,-15.34341 2.64528,-7.16217 3.83825,-15.95575 2.74503,-24.95602 -2.12384,-17.48417 -8.77282,-29.90237 -11.16314,-46.39964 -5.49848,-37.9492 8.04108,-69.55287 24.88829,-87.99325 18.10496,-19.81684 44.86744,-32.95663 75.21449,-39.37502 8.11447,-1.71627 16.59042,-2.77306 25.8036,-2.77306 9.04443,0 17.94464,0.85139 25.98645,2.58817 13.64919,2.94759 26.20388,7.49792 36.41767,13.67948 1.46311,0.88558 3.03696,1.85123 4.20906,3.14263 -7.0467,13.40141 -14.07455,26.82149 -21.04547,40.29944 -17.89632,-11.27581 -46.16675,-19.29861 -74.48239,-13.30989 -11.6769,2.46966 -22.55251,7.45114 -32.20861,13.67965 -9.55837,6.16547 -18.00705,13.32579 -24.52242,21.6285 -10.34685,13.18528 -17.15506,29.29651 -15.73825,53.05486 0.43047,7.21856 1.4955,14.29532 1.83008,21.44362 0.35946,7.6865 0.43322,15.23286 -0.18303,22.18297 -1.8881,21.28942 -11.68989,35.50727 -30.92761,38.82074"
         inkscape:label="plume" />
      <path
         d="m 214.9668,220.68486 c -7.41572,4.94462 -12.32004,12.81083 -12.87143,22.86327 -0.74067,13.50524 6.53441,23.34082 15.01667,27.91742 20.49121,11.05543 46.54349,-4.27525 44.09599,-29.60206 -0.74329,-7.69 -5.45238,-14.96818 -9.5345,-18.77191 -4.52457,-4.21652 -12.52315,-7.92493 -21.45191,-7.22017 -6.14751,0.48548 -11.36245,2.21802 -15.25482,4.81345 M 227.36122,180.975 h 8.58095 c 2.76099,0.98276 6.65384,0.82222 9.53427,1.68463 0.69513,2.79858 0.38976,5.98636 0.23814,9.14526 2.72833,1.74192 6.47123,2.66138 10.01127,4.33206 1.18169,0.55769 2.3853,1.49256 3.09855,1.44394 2.72714,-0.18582 3.52978,-5.27462 5.95894,-5.776 2.59102,-0.53482 5.10766,1.59799 6.91225,3.12858 3.85399,3.26913 6.61522,5.87853 10.01103,9.86735 1.44534,1.69787 3.51524,4.10773 3.09855,6.73878 -0.5533,3.49491 -4.49931,2.97645 -5.72056,6.25714 6.94443,4.73113 12.68549,9.16187 17.63844,15.40264 2.44394,3.07948 4.76487,6.56885 6.19733,10.34875 7.36018,19.423 15.6422,39.49227 28.60254,53.42788 v 0.72209 c -7.85244,-1.45742 -15.53897,-3.08236 -23.35875,-4.57275 1.38526,-8.44869 -0.1602,-17.05214 -3.57532,-22.62258 -1.63033,-2.65873 -3.79249,-5.42771 -5.72056,-6.97923 -3.93004,-3.16252 -11.90716,-5.39618 -18.59175,-3.36952 -4.31455,1.30819 -7.33705,4.47118 -10.72595,7.22017 5.81901,7.38048 16.47178,11.09876 30.03262,9.86736 0.21335,2.03845 -0.38237,4.64664 -0.47653,6.73854 -1.14235,25.39058 5.58968,46.07676 9.05749,67.38658 h -0.47678 c -23.78714,-7.02834 -40.4923,-21.20729 -59.3508,-33.21202 -16.929,4.24588 -33.68661,8.66555 -50.76985,12.75522 -0.23886,-2.40456 1.44677,-3.86269 2.14524,-6.01668 0.70682,-2.17975 1.39575,-5.6181 1.66847,-7.94179 0.74115,-6.31515 -0.20549,-12.94441 -1.43008,-18.77191 -5.33723,2.09045 -10.38244,-4.7073 -13.58635,-7.94202 -1.59337,-1.60906 -2.99628,-2.95407 -4.52886,-4.81345 -1.60053,-1.94194 -3.47019,-3.80781 -3.33693,-6.01645 0.21406,-3.54569 4.27975,-3.47974 5.72055,-6.49808 -0.86963,-4.26297 -4.10191,-8.2075 -4.76701,-13.47755 -3.26756,-0.07 -6.86529,0.19327 -9.77289,-0.2407 -1.05366,-2.4657 -0.77141,-6.28026 -1.66846,-8.90456 v -9.86736 c 1.10301,-2.73696 0.0946,-7.60553 2.38363,-9.14526 2.60675,-0.49632 6.07145,-0.12709 9.05772,-0.2407 0.8837,-5.20434 3.28211,-8.87953 5.0054,-13.23662 -1.3383,-3.01352 -5.79637,-3.12857 -5.95894,-6.97923 -0.0823,-1.94772 1.89231,-4.5896 3.33693,-6.25739 1.5619,-1.80281 3.11046,-3.1406 4.76725,-4.81321 1.24366,-1.25595 2.98364,-3.01496 5.0054,-4.57275 1.7283,-1.33153 4.42469,-3.49275 6.19732,-3.36927 3.38747,0.23589 3.93481,5.2987 7.15064,5.776 3.91025,-1.9884 7.79904,-3.99846 12.63304,-5.05391 0.19714,-3.2506 -0.46342,-7.367 0.47654,-9.86735 2.74406,-0.9197 6.65431,-0.66167 9.29587,-1.68463"
         style="fill:#fcff00;fill-opacity:1;fill-rule:evenodd;stroke:none;stroke-width:0.239538"
         id="path22-5"
         inkscape:label="helmet" />
      <text
         transform="scale(0.99879275,1.0012087)"
         id="text2438"
         y="377.10458"
         x="199.0863"
         style="font-style:normal;font-variant:normal;font-weight:normal;font-stretch:normal;font-size:39.6331px;line-height:1.25;font-family:'SF TransRobotics';-inkscape-font-specification:'SF TransRobotics';display:inline;fill:#fcff00;fill-opacity:1;stroke-width:0.693885"
         xml:space="preserve"
         inkscape:label="4915 text"><tspan
           style="font-style:normal;font-variant:normal;font-weight:normal;font-stretch:normal;font-size:39.6331px;font-family:'SF TransRobotics';-inkscape-font-specification:'SF TransRobotics';fill:#fcff00;fill-opacity:1;stroke-width:0.693885"
           y="377.10458"
           x="199.0863"
           id="tspan2436"
           sodipodi:role="line">4915</tspan></text>
      <text
         id="text1588"
         style="font-style:normal;font-variant:normal;font-weight:normal;font-stretch:normal;font-size:49.3889px;line-height:1.25;font-family:'SF TransRobotics';-inkscape-font-specification:'SF TransRobotics';letter-spacing:0px;display:inline;fill:#fcff00;fill-opacity:1;stroke-width:0.264583"
         xml:space="preserve"
         inkscape:label="close circle text"><textPath
           id="textPath1593"
           xlink:href="#ellipse1535">SPARTRONICS<tspan
   id="tspan1586"
   style="font-style:normal;font-variant:normal;font-weight:normal;font-stretch:normal;font-size:49.3889px;font-family:'SF TransRobotics';-inkscape-font-specification:'SF TransRobotics';fill:#fcff00;fill-opacity:1;stroke-width:0.264583" /></textPath></text>
      <path
         id="ellipse1535"
         style="display:none;fill:#1455fb;fill-opacity:1;stroke-width:0.213046;stop-color:#000000"
         inkscape:label="circle for text"
         d="M 122.17372,185.20834 A 128.08755,127.86835 24.401555 0 1 291.64565,121.67882 128.08755,127.86835 24.401555 0 1 355.46533,291.04169 128.08755,127.86835 24.401555 0 1 185.9934,354.57119 128.08755,127.86835 24.401555 0 1 122.17372,185.20834"
         inkscape:export-xdpi="200"
         inkscape:export-ydpi="200" />
    </g>
  </g>
</svg>
